<?xml version="1.0" encoding="UTF-8"?>
<svg width="16px" height="16px" viewBox="0 0 16 16" version="1.1" xmlns="http://www.w3.org/2000/svg" xmlns:xlink="http://www.w3.org/1999/xlink">
    <!-- Generator: Sketch 52.3 (67297) - http://www.bohemiancoding.com/sketch -->
    <title>search</title>
    <desc>Created with Sketch.</desc>
    <g id="Page-1" stroke="none" stroke-width="1" fill="none" fill-rule="evenodd">
        <path d="M15.7213921,14.4231668 L10.8989037,9.59978808 C11.6406195,8.62589654 12.0580016,7.37375026 12.0580016,6.02855561 C12.0580016,2.68949889 9.36850275,0 6.02944603,0 C2.6903893,0 0,2.6903893 0,6.02944603 C0,9.36850275 2.68949889,12.0580016 6.02855561,12.0580016 C7.37375026,12.0580016 8.57892714,11.6406195 9.59978808,10.8989037 L14.4231668,15.7222825 C14.6083798,15.9074955 14.8405489,16.0005372 15.0727247,16.0005372 C15.3049004,16.0005372 15.5361857,15.9074955 15.7222825,15.7222825 C16.0927174,15.3509794 16.0927174,14.7944699 15.7214121,14.4231891 L15.7213921,14.4231668 Z M6.02944603,10.6484745 C3.46299064,10.6484745 1.41041756,8.59590142 1.41041756,6.02944603 C1.41041756,3.46299064 3.46299064,1.41041756 6.02944603,1.41041756 C8.59590142,1.41041756 10.6484745,3.46299064 10.6484745,6.02944603 C10.6484745,8.59491602 8.59494066,10.6484745 6.02944603,10.6484745 Z" id="search" fill="#FFFFFF"></path>
    </g>
</svg>