<?xml version="1.0" encoding="UTF-8"?>
<svg width="144px" height="120px" viewBox="0 0 144 120" version="1.1" xmlns="http://www.w3.org/2000/svg" xmlns:xlink="http://www.w3.org/1999/xlink">
    <!-- Generator: Sketch 52.3 (67297) - http://www.bohemiancoding.com/sketch -->
    <title>Twitter</title>
    <desc>Created with Sketch.</desc>
    <g id="Page-1" stroke="none" stroke-width="1" fill="none" fill-rule="evenodd">
        <path d="M144,14.2058505 C138.708928,16.6153846 133.01215,18.2448537 127.03645,18.9729144 C133.138933,15.2286024 137.821447,9.29144095 140.02747,2.21885157 C134.313788,5.68580715 128,8.20801733 121.255151,9.56013001 C115.879556,3.67497291 108.196513,0 99.693608,0 C83.3893291,0 70.1616482,13.5644637 70.1616482,30.2925244 C70.1616482,32.6673889 70.4152139,34.9729144 70.9223455,37.191766 C46.3687269,35.9263272 24.6043317,23.8786566 10.0243001,5.52979415 C7.48019017,10.0195016 6.0264131,15.2286024 6.0264131,20.7757313 C6.0264131,31.2806067 11.2414157,40.5547129 19.1695721,45.9891658 C14.3349181,45.8418202 9.77073428,44.4637053 5.78129952,42.2101842 L5.78129952,42.5828819 C5.78129952,57.2654388 15.9661912,69.5124594 29.4896989,72.2860238 C27.0132066,72.9967497 24.4014791,73.3521127 21.7052298,73.3521127 C19.8034865,73.3521127 17.9440042,73.1700975 16.1436873,72.8147346 C19.9049128,84.8450704 30.8082409,93.6078007 43.7400951,93.8418202 C33.6312731,101.971831 20.8853671,106.816901 7.04912837,106.816901 C4.66561014,106.816901 2.30744849,106.678223 0,106.400867 C13.0755415,114.981582 28.6106709,120 45.2868463,120 C99.6344427,120 129.343899,73.8461538 129.343899,33.8114843 C129.343899,32.4940412 129.318542,31.176598 129.267829,29.8851571 C135.040676,25.6121343 140.052826,20.2816901 144,14.2058505" id="Twitter" fill="#4A4A4A"></path>
    </g>
</svg>